HIERARCHY
ROOT Hips
{
  OFFSET -43.3411 73.6987 0
  CHANNELS 6 Xposition Yposition Zposition Zrotation Xrotation Yrotation
  JOINT Bip01_Pelvis
  {
    OFFSET 0 0 0
    CHANNELS 6 Xposition Yposition Zposition Zrotation Xrotation Yrotation
    JOINT BN_Tail_01
    {
      OFFSET -18.6385 -9.591 -2.032e-005
      CHANNELS 6 Xposition Yposition Zposition Zrotation Xrotation Yrotation
      JOINT BN_Tail_02
      {
        OFFSET 20.9743 0 0
        CHANNELS 6 Xposition Yposition Zposition Zrotation Xrotation Yrotation
        JOINT BN_Tail_03
        {
          OFFSET 20.3015 0 0
          CHANNELS 6 Xposition Yposition Zposition Zrotation Xrotation Yrotation
          JOINT BN_Tail_04
          {
            OFFSET 21.6394 -9.91821e-005 0
            CHANNELS 6 Xposition Yposition Zposition Zrotation Xrotation Yrotation
            End Site
            {
              OFFSET 0 0 0
            }
          }
        }
      }
    }
    JOINT Bip01_Spine
    {
      OFFSET 22.1878 -0.659386 3.048e-005
      CHANNELS 6 Xposition Yposition Zposition Zrotation Xrotation Yrotation
      JOINT Bip01_R_Thigh
      {
        OFFSET -22.1873 0.677109 -17.1024
        CHANNELS 6 Xposition Yposition Zposition Zrotation Xrotation Yrotation
        JOINT Bip01_R_Calf
        {
          OFFSET 34.2647 0 0
          CHANNELS 6 Xposition Yposition Zposition Zrotation Xrotation Yrotation
          JOINT Bip01_R_HorseLink
          {
            OFFSET 20.4429 0 0
            CHANNELS 6 Xposition Yposition Zposition Zrotation Xrotation Yrotation
            JOINT Bip01_R_Foot
            {
              OFFSET 16.5673 0 0
              CHANNELS 6 Xposition Yposition Zposition Zrotation Xrotation Yrotation
              JOINT Bip01_R_Toe0
              {
                OFFSET 9.18784 6.94841 0
                CHANNELS 6 Xposition Yposition Zposition Zrotation Xrotation Yrotation
                JOINT Bip01_R_Toe0Nub
                {
                  OFFSET 1.01907 0 0
                  CHANNELS 6 Xposition Yposition Zposition Zrotation Xrotation Yrotation
                  End Site
                  {
                    OFFSET 0 0 0
                  }
                }
              }
            }
          }
        }
      }
      JOINT Bip01_L_Thigh
      {
        OFFSET -22.1873 0.67701 17.1024
        CHANNELS 6 Xposition Yposition Zposition Zrotation Xrotation Yrotation
        JOINT Bip01_L_Calf
        {
          OFFSET 34.2647 0 0
          CHANNELS 6 Xposition Yposition Zposition Zrotation Xrotation Yrotation
          JOINT Bip01_L_HorseLink
          {
            OFFSET 20.4429 0 0
            CHANNELS 6 Xposition Yposition Zposition Zrotation Xrotation Yrotation
            JOINT Bip01_L_Foot
            {
              OFFSET 16.5673 0 0
              CHANNELS 6 Xposition Yposition Zposition Zrotation Xrotation Yrotation
              JOINT Bip01_L_Toe0
              {
                OFFSET 9.18784 6.9484 1.14441e-005
                CHANNELS 6 Xposition Yposition Zposition Zrotation Xrotation Yrotation
                JOINT Bip01_L_Toe0Nub
                {
                  OFFSET 1.01907 0 0
                  CHANNELS 6 Xposition Yposition Zposition Zrotation Xrotation Yrotation
                  End Site
                  {
                    OFFSET 0 0 0
                  }
                }
              }
            }
          }
        }
      }
      JOINT Bip01_Spine1
      {
        OFFSET 39.3372 -0.0249863 0
        CHANNELS 6 Xposition Yposition Zposition Zrotation Xrotation Yrotation
        JOINT Bip01_Neck
        {
          OFFSET 34.2837 -15.5934 -4.318e-005
          CHANNELS 6 Xposition Yposition Zposition Zrotation Xrotation Yrotation
          JOINT Bip01_R_Clavicle
          {
            OFFSET -17.9452 -11.3131 -6.19287
            CHANNELS 6 Xposition Yposition Zposition Zrotation Xrotation Yrotation
            JOINT Bip01_R_UpperArm
            {
              OFFSET 17.4439 1.52588e-005 -2.28882e-005
              CHANNELS 6 Xposition Yposition Zposition Zrotation Xrotation Yrotation
              JOINT Bip01_R_Forearm
              {
                OFFSET 30.6251 1.14441e-005 0
                CHANNELS 6 Xposition Yposition Zposition Zrotation Xrotation Yrotation
                JOINT Bip01_R_Hand
                {
                  OFFSET 31.2039 0 0
                  CHANNELS 6 Xposition Yposition Zposition Zrotation Xrotation Yrotation
                  JOINT Bip01_R_Finger0
                  {
                    OFFSET 22.1039 0.255862 -0.37902
                    CHANNELS 6 Xposition Yposition Zposition Zrotation Xrotation Yrotation
                    JOINT Bip01_R_Finger0Nub
                    {
                      OFFSET 12.0552 0 0
                      CHANNELS 6 Xposition Yposition Zposition Zrotation Xrotation Yrotation
                      End Site
                      {
                        OFFSET 0 0 0
                      }
                    }
                  }
                }
              }
            }
          }
          JOINT Bip01_L_Clavicle
          {
            OFFSET -17.9452 -11.3132 6.19281
            CHANNELS 6 Xposition Yposition Zposition Zrotation Xrotation Yrotation
            JOINT Bip01_L_UpperArm
            {
              OFFSET 17.444 0 1.14441e-005
              CHANNELS 6 Xposition Yposition Zposition Zrotation Xrotation Yrotation
              JOINT Bip01_L_Forearm
              {
                OFFSET 30.6251 0 0
                CHANNELS 6 Xposition Yposition Zposition Zrotation Xrotation Yrotation
                JOINT Bip01_L_Hand
                {
                  OFFSET 31.204 0 0
                  CHANNELS 6 Xposition Yposition Zposition Zrotation Xrotation Yrotation
                  JOINT Bip01_L_Finger0
                  {
                    OFFSET 22.1039 0.255856 0.379024
                    CHANNELS 6 Xposition Yposition Zposition Zrotation Xrotation Yrotation
                    JOINT Bip01_L_Finger0Nub
                    {
                      OFFSET 12.0552 0 0
                      CHANNELS 6 Xposition Yposition Zposition Zrotation Xrotation Yrotation
                      End Site
                      {
                        OFFSET 0 0 0
                      }
                    }
                  }
                }
              }
            }
          }
          JOINT Bip01_Neck1
          {
            OFFSET 14.9359 -0.0106278 0
            CHANNELS 6 Xposition Yposition Zposition Zrotation Xrotation Yrotation
            JOINT Bip01_Head
            {
              OFFSET 14.3578 0.505501 0
              CHANNELS 6 Xposition Yposition Zposition Zrotation Xrotation Yrotation
              JOINT BN_Ear_L_01
              {
                OFFSET 3.76994 -2.35629 12.3444
                CHANNELS 6 Xposition Yposition Zposition Zrotation Xrotation Yrotation
                End Site
                {
                  OFFSET 0 0 0
                }
              }
              JOINT BN_Ear_R_01
              {
                OFFSET 3.76995 -2.35622 -12.3442
                CHANNELS 6 Xposition Yposition Zposition Zrotation Xrotation Yrotation
                End Site
                {
                  OFFSET 0 0 0
                }
              }
              JOINT BN_Mouth_01
              {
                OFFSET 11.8395 10.8645 1.27e-005
                CHANNELS 6 Xposition Yposition Zposition Zrotation Xrotation Yrotation
                JOINT BN_Tongue_01
                {
                  OFFSET 9.73752 3.21674 1.016e-005
                  CHANNELS 6 Xposition Yposition Zposition Zrotation Xrotation Yrotation
                  JOINT BN_Tongue_02
                  {
                    OFFSET 9.04304 0.053505 0
                    CHANNELS 6 Xposition Yposition Zposition Zrotation Xrotation Yrotation
                    End Site
                    {
                      OFFSET 0 0 0
                    }
                  }
                }
                JOINT BN_Beard_01
                {
                  OFFSET 6.93466 -0.751793 0
                  CHANNELS 6 Xposition Yposition Zposition Zrotation Xrotation Yrotation
                  JOINT BN_Beard_02
                  {
                    OFFSET 13.0965 1.52588e-005 0
                    CHANNELS 6 Xposition Yposition Zposition Zrotation Xrotation Yrotation
                    End Site
                    {
                      OFFSET 0 0 0
                    }
                  }
                }
              }
              JOINT Bip01_HeadNub
              {
                OFFSET 25.6158 0 0
                CHANNELS 6 Xposition Yposition Zposition Zrotation Xrotation Yrotation
                End Site
                {
                  OFFSET 0 0 0
                }
              }
            }
          }
        }
      }
    }
  }
}
MOTION
Frames:	4
Frame Time:	0.0333333
-58.0715 57.3487 5.9295 135.981 -71.9776 -145.638 -3.8147e-006 4.76837e-007 7.10543e-015 -79.2736 -1.44884 -76.068 -18.6385 -9.591 4.76837e-007 -53.1753 0.315388 -165.775 20.9743 1.52588e-005 -0.000629425 -4.688 -3.42386 11.2554 20.3015 7.62939e-006 -8.88179e-014 -16.7959 5.21582 33.7734 21.6394 4.12115e-013 2.86102e-006 -15.6199 -7.68659 20.9596 21.4846 -1.20613 5.43873 -1.13405 19.6698 -13.0619 -25.8047 -6.85436 -16.0712 -110.236 5.62406 159.865 34.2647 -3.8147e-006 1.90735e-006 -108.154 -1.16902e-005 6.64123e-006 20.4429 0 4.61853e-014 101.348 3.7182e-007 1.91937e-006 16.5673 7.62939e-006 1.1191e-013 -27.1589 19.3436 14.1918 9.18785 6.9484 3.6193e-006 90.7653 -1.77358 0.11106 1.01908 -3.28626e-014 0 -2.93421e-008 -3.13386e-009 -3.74281e-007 -18.5247 4.66068 15.3036 -91.6639 8.37938 -179.028 34.2647 -3.33786e-006 -3.8147e-006 -104.092 -1.13184e-005 9.25331e-006 20.4429 1.90735e-006 -5.72205e-006 103.86 6.15336e-006 -1.14165e-005 16.5673 3.8147e-006 7.62939e-006 -15.8444 3.93042 -17.138 9.18784 6.9484 1.92711e-008 89.83 -0.162398 0.00387877 1.01907 1.19209e-007 3.8147e-006 -179.96 -5.39612e-005 4.39563e-005 39.3521 -0.0241966 -0.000965118 38.711 -14.7286 -2.77131 34.2892 -15.5918 4.09951e-005 19.5794 -3.69183 -14.7441 -21.4429 -5.23899 -1.12386 148.844 -34.8542 83.3349 17.4439 7.6294e-006 -1.52588e-005 53.8117 43.2108 -89.4676 30.6251 3.8147e-006 -3.81469e-006 -51.5409 -1.05757e-005 8.16751e-006 31.2039 9.53676e-007 1.90735e-006 173.515 65.3981 -168.137 22.1039 0.255854 -0.379031 -3.06108 -6.48202 -20.9823 12.0552 3.81471e-006 -6.5565e-007 179.96 -1.08057e-005 -9.37261e-006 -18.2969 -6.03696 10.829 173.44 41.3657 -119.029 17.4439 1.52588e-005 3.8147e-006 -19.4968 -67.3205 32.4404 30.6251 -5.72205e-006 -9.23705e-014 -72.3767 -5.74008e-006 -1.4884e-005 31.2039 3.8147e-006 3.81469e-006 -66.8716 -70.7829 -90.9989 22.1039 0.255853 0.379047 -6.17553 14.588 6.75379 12.0552 -3.81471e-006 -3.81469e-006 -9.90565e-006 1.01516e-005 9.29547e-006 14.9354 -0.010643 0.000168324 0.625397 -8.21755 11.0257 14.3578 0.505471 -2.2203e-009 -4.62252 -5.16044 4.82781 3.7699 -2.35629 12.3444 -166.758 53.7132 -51.1007 3.76992 -2.35623 -12.3442 4.8998 45.3198 145.961 11.8394 10.8646 4.06569e-007 -150.472 -3.88009 -179.415 9.73751 3.21677 9.88243e-007 17.816 0.000650899 0.00202087 3.05138 0.885533 -0.233799 -17.2473 -2.08385 -2.7072 6.93466 -0.751786 -8.07878e-009 -34.0077 31.119 15.0123 13.0966 1.52588e-005 2.38419e-007 22.3111 -7.55169 -9.76424 25.6158 -2.84217e-014 1.42109e-014 -6.59276e-008 1.08709e-006 9.95714e-006 
-56.9768 57.3566 6.24687 135.895 -71.6554 -146.034 -3.8147e-006 4.76837e-007 0 -78.9511 -1.50312 -75.9574 -18.6385 -9.591 4.76837e-007 -53.6707 0.315106 -165.575 20.9743 1.52588e-005 -0.000629425 -3.47113 -3.28577 11.9373 20.3015 7.62939e-006 -1.03029e-013 -17.0086 5.31369 34.7678 21.6394 5.82645e-013 2.86102e-006 -16.3329 -8.64998 21.7543 21.4723 -1.22642 5.48271 -1.26813 19.5438 -13.1063 -25.8177 -6.84802 -16.0998 -108.452 4.95536 160.377 34.2647 -3.8147e-006 1.90735e-006 -108.474 -2.18647e-006 9.75094e-006 20.4429 7.10543e-015 3.90799e-014 102.632 1.36724e-006 1.74141e-006 16.5673 7.62939e-006 1.1191e-013 -26.085 20.0682 13.613 9.18785 6.9484 3.62742e-006 90.5957 -2.12115 0.222989 1.01908 4.26325e-014 0 -2.93421e-008 -3.13386e-009 -3.74281e-007 -18.508 4.59486 15.2946 -90.1647 8.08554 -178.359 34.2647 -3.33786e-006 -3.8147e-006 -102.817 -1.66261e-006 1.17327e-005 20.4429 1.90735e-006 -5.72205e-006 103.72 6.09276e-006 -1.15014e-005 16.5673 3.8147e-006 7.62939e-006 -15.6823 4.17167 -18.0485 9.18784 6.9484 1.82721e-008 89.8477 -0.144961 0.00210552 1.01907 1.19209e-007 3.8147e-006 -179.96 -5.39613e-005 4.39562e-005 39.3523 -0.0241966 -0.000965118 38.8728 -15.6885 -2.93828 34.2892 -15.5918 4.0992e-005 19.3276 -3.73872 -15.3698 -21.4326 -5.3227 -0.90638 149.989 -31.4489 93.3574 17.4439 7.6294e-006 -1.52588e-005 56.7687 33.3533 -97.5351 30.6251 3.8147e-006 -3.81469e-006 -57.1279 -4.8315e-006 1.51098e-006 31.2039 9.53676e-007 1.90735e-006 164.41 65.7232 -150.319 22.1039 0.255854 -0.379031 -4.66908 -6.90898 -14.248 12.0552 3.81471e-006 -6.5565e-007 179.96 -1.08052e-005 -9.37327e-006 -18.1567 -6.13056 11.0109 174.214 41.3275 -119.852 17.4439 1.52588e-005 3.8147e-006 -17.7362 -66.8523 33.8678 30.6251 -5.72205e-006 -1.24345e-013 -72.2991 -5.4906e-006 -1.49167e-005 31.2039 3.8147e-006 3.81469e-006 -66.6806 -69.848 -90.9713 22.1039 0.255853 0.379047 -6.36884 14.8539 6.68058 12.0552 -3.81471e-006 -3.81469e-006 -9.90565e-006 1.01516e-005 9.29547e-006 14.9354 -0.010643 0.000168324 0.561721 -5.79773 12.0926 14.3578 0.505471 -3.84719e-009 -5.64444 -7.73097 2.12507 3.7699 -2.35629 12.3444 -166.792 53.3775 -50.7357 3.76992 -2.35623 -12.3442 5.28413 44.7047 146.428 11.8394 10.8646 4.95236e-007 -152.125 -3.85981 -179.533 9.73751 3.21677 9.86421e-007 16.7635 -0.000579109 -0.00192644 3.05145 0.885523 -0.23394 -17.2876 -2.08253 -2.70679 6.93466 -0.751786 -7.65315e-009 -36.7687 33.6476 15.6102 13.0966 1.52588e-005 2.38419e-007 22.8832 -7.66646 -9.52808 25.6158 -4.26326e-014 2.13163e-014 -6.59277e-008 1.08709e-006 9.95714e-006 
-55.9253 57.3732 6.64973 135.684 -71.5348 -146.473 -3.8147e-006 4.76837e-007 7.10543e-015 -78.7223 -1.57131 -75.6124 -18.6385 -9.591 4.76837e-007 -54.091 0.314987 -165.491 20.9743 1.52588e-005 -0.000629425 -2.47784 -3.19544 12.3379 20.3015 7.62939e-006 -1.03029e-013 -17.2787 5.25538 34.8636 21.6394 5.54223e-013 2.86102e-006 -16.8442 -9.47254 21.4657 21.4367 -1.25292 5.61482 -1.14513 19.4461 -13.4705 -25.9212 -6.78697 -16.0997 -107.186 4.4167 160.913 34.2647 -3.8147e-006 1.90735e-006 -108.812 -2.51373e-006 9.63454e-006 20.4429 0 4.08562e-014 103.542 4.65263e-007 1.97839e-006 16.5673 7.62939e-006 1.1191e-013 -24.8789 20.64 12.8238 9.18785 6.9484 3.64e-006 90.43 -2.46228 0.331783 1.01908 9.32587e-014 -3.55271e-015 -2.93421e-008 -3.13386e-009 -3.74281e-007 -18.4074 4.60169 15.2662 -88.733 7.83036 -177.74 34.2647 -3.33786e-006 -3.8147e-006 -101.233 -1.11033e-005 9.91042e-006 20.4429 1.90735e-006 -5.72205e-006 103.403 -3.67946e-006 -9.27891e-006 16.5673 3.8147e-006 7.62939e-006 -15.5413 4.35064 -18.9816 9.18784 6.9484 1.72038e-008 89.865 -0.12788 0.000363715 1.01907 1.19209e-007 3.8147e-006 -179.96 -5.39613e-005 4.39562e-005 39.3518 -0.0241966 -0.000965118 38.7688 -16.4834 -3.16308 34.2892 -15.5918 4.09927e-005 19.0761 -3.83876 -15.8777 -21.4191 -5.40058 -0.738157 151.227 -27.9112 104.007 17.4439 7.6294e-006 -1.52588e-005 58.7251 24.1117 -104.488 30.6251 3.8147e-006 -3.81469e-006 -61.1003 -6.4404e-006 8.3187e-007 31.2039 9.53676e-007 1.90735e-006 154.367 64.1664 -132.396 22.1039 0.255854 -0.379031 -6.3417 -7.28624 -7.44202 12.0552 3.81471e-006 -6.5565e-007 179.96 -1.08049e-005 -9.37362e-006 -18.0381 -6.23041 11.1482 174.868 41.2024 -120.522 17.4439 1.52588e-005 3.8147e-006 -15.6234 -66.4053 35.6106 30.6251 -5.72205e-006 -1.27898e-013 -72.4119 -5.49551e-006 -1.49215e-005 31.2039 3.8147e-006 3.81469e-006 -66.9284 -69.2529 -91.4489 22.1039 0.255853 0.379047 -6.54956 15.1204 6.592 12.0552 -3.81471e-006 -3.81469e-006 -9.90559e-006 1.01516e-005 9.29547e-006 14.9354 -0.010643 0.000168324 0.610427 -3.71886 12.9045 14.3578 0.505471 -5.6045e-009 -6.58915 -9.891 -0.265126 3.7699 -2.35629 12.3444 -166.821 53.0482 -50.3808 3.76992 -2.35623 -12.3442 5.66393 44.1035 146.885 11.8394 10.8646 5.64646e-007 -153.804 -3.88014 -179.645 9.73751 3.21677 9.83513e-007 15.6082 -0.00393649 -0.0140944 3.05152 0.88553 -0.234078 -17.3272 -2.08123 -2.7064 6.93466 -0.751786 -6.97344e-009 -39.7392 35.8493 16.125 13.0966 1.52588e-005 2.38419e-007 22.6877 -7.63038 -9.60256 25.6158 -2.84217e-014 -7.10543e-015 -6.59277e-008 1.08709e-006 9.95708e-006 
-54.8954 57.3961 7.16018 135.307 -71.6802 -146.989 -3.8147e-006 4.76837e-007 7.10543e-015 -78.5511 -1.66354 -74.9159 -18.6385 -9.591 4.76837e-007 -54.4448 0.315093 -165.524 20.9743 1.52588e-005 -0.000629425 -1.71254 -3.16275 12.4369 20.3015 7.6294e-006 -8.4377e-014 -17.6252 5.0136 33.981 21.6394 5.96856e-013 2.86102e-006 -17.2586 -10.2229 20.2722 21.3647 -1.28729 5.87562 -0.72354 19.3433 -14.2764 -26.1491 -6.65225 -16.0646 -106.528 4.05277 161.418 34.2647 -3.8147e-006 1.90735e-006 -109.325 -2.58334e-006 9.60341e-006 20.4429 -7.10543e-015 4.9738e-014 104.116 4.99707e-007 1.99792e-006 16.5673 7.62939e-006 1.01252e-013 -23.4958 21.022 11.8269 9.18785 6.9484 3.65662e-006 90.2632 -2.80712 0.440672 1.01908 1.86517e-013 -3.55271e-015 -2.93421e-008 -3.13386e-009 -3.74281e-007 -18.1894 4.67876 15.2121 -87.2692 7.63893 -177.221 34.2647 -3.33786e-006 -3.8147e-006 -99.1269 -1.04016e-006 1.19369e-005 20.4429 1.90735e-006 -5.72205e-006 102.812 -3.24594e-006 -9.59779e-006 16.5673 3.8147e-006 7.62939e-006 -15.4979 4.27957 -20.0877 9.18784 6.9484 1.78387e-008 89.8824 -0.11061 -0.00140427 1.01907 1.19209e-007 3.8147e-006 -179.96 -5.39613e-005 4.39561e-005 39.3514 -0.0241966 -0.000965118 38.3753 -17.1149 -3.45818 34.2892 -15.5918 4.10005e-005 18.8133 -4.01057 -16.282 -21.4038 -5.47512 -0.616633 152.225 -25.2061 112.949 17.4439 7.6294e-006 -1.52588e-005 60.1049 16.8827 -109.242 30.6251 3.8147e-006 -3.81469e-006 -63.908 -6.29233e-006 -4.6704e-007 31.2039 9.53676e-007 1.90735e-006 147.48 61.4024 -119.521 22.1039 0.255854 -0.379031 -7.84582 -7.4077 -2.05494 12.0552 3.81471e-006 -6.5565e-007 179.96 -1.08047e-005 -9.37359e-006 -17.9397 -6.34183 11.2431 175.417 40.9807 -121.052 17.4439 1.52588e-005 3.8147e-006 -13.0797 -65.9478 37.7162 30.6251 -5.72205e-006 -1.06581e-013 -72.7334 -5.45985e-006 -1.50001e-005 31.2039 3.8147e-006 3.81469e-006 -67.8059 -69.055 -92.621 22.1039 0.255853 0.379047 -6.71722 15.3993 6.47433 12.0552 -3.81471e-006 -3.81469e-006 1.12222e-007 1.01516e-005 9.29546e-006 14.9354 -0.010643 0.000168324 0.834436 -2.03439 13.4223 14.3578 0.505471 -7.63154e-009 -7.365 -11.5933 -2.27541 3.7699 -2.35629 12.3444 -166.844 52.7284 -50.0375 3.76992 -2.35623 -12.3442 6.05034 43.4987 147.349 11.8394 10.8646 5.99409e-007 -155.537 -3.85918 -179.769 9.73751 3.21677 9.77824e-007 14.4527 -0.00686327 -0.0266317 3.05159 0.885528 -0.234218 -17.3671 -2.07991 -2.706 6.93466 -0.751786 -5.64379e-009 -43.0479 37.6937 16.7313 13.0966 1.52588e-005 2.38419e-007 22.5378 -7.60306 -9.65842 25.6158 -4.26326e-014 -7.10543e-015 -6.59263e-008 1.08709e-006 -6.07294e-008 
